<svg width="19" height="21" viewBox="0 0 19 21" fill="none" xmlns="http://www.w3.org/2000/svg">
<path fill-rule="evenodd" clip-rule="evenodd" d="M10.5 20.8333C15.1944 20.8333 19 17.0277 19 12.3333C19 7.63889 15.1944 3.83331 10.5 3.83331C5.80557 3.83331 2 7.63889 2 12.3333C2 17.0277 5.80557 20.8333 10.5 20.8333ZM10.5 17.8333C13.5376 17.8333 16 15.3709 16 12.3333C16 9.29575 13.5376 6.83331 10.5 6.83331C7.46243 6.83331 5 9.29575 5 12.3333C5 15.3709 7.46243 17.8333 10.5 17.8333ZM5.5 11.8333C8.53757 11.8333 11 9.37088 11 6.33331C11 3.29575 8.53757 0.833313 5.5 0.833313C2.46243 0.833313 0 3.29575 0 6.33331C0 9.37088 2.46243 11.8333 5.5 11.8333ZM5.5 9.89214C7.46548 9.89214 9.05882 8.2988 9.05882 6.33331C9.05882 4.36783 7.46548 2.77449 5.5 2.77449C3.53452 2.77449 1.94118 4.36783 1.94118 6.33331C1.94118 8.2988 3.53452 9.89214 5.5 9.89214Z" fill="url(#paint0_linear)"/>
<defs>
<linearGradient id="paint0_linear" x1="2" y1="2.33331" x2="15" y2="19.3333" gradientUnits="userSpaceOnUse">
<stop stop-color="#37EABA"/>
<stop offset="1" stop-color="#70B0D1"/>
</linearGradient>
</defs>
</svg>
