<svg width="27" height="27" viewBox="0 0 27 27" fill="none" xmlns="http://www.w3.org/2000/svg">
<g filter="url(#filter0_d)">
<path fill-rule="evenodd" clip-rule="evenodd" d="M13.7689 24.0127C19.844 24.0127 24.7689 19.0879 24.7689 13.0127C24.7689 6.93759 19.844 2.01273 13.7689 2.01273C7.69373 2.01273 2.76886 6.93759 2.76886 13.0127C2.76886 19.0879 7.69373 24.0127 13.7689 24.0127ZM13.7689 22.0127C18.7394 22.0127 22.7689 17.9833 22.7689 13.0127C22.7689 8.04216 18.7394 4.01273 13.7689 4.01273C8.79831 4.01273 4.76886 8.04216 4.76886 13.0127C4.76886 17.9833 8.79831 22.0127 13.7689 22.0127Z" fill="url(#paint0_radial)"/>
<mask id="mask0" mask-type="alpha" maskUnits="userSpaceOnUse" x="4" y="4" width="19" height="19">
<circle cx="13.7689" cy="13.0127" r="9" fill="white"/>
</mask>
<g mask="url(#mask0)">
<path fill-rule="evenodd" clip-rule="evenodd" d="M13.3734 5.68935L14.5822 11.3936L10.0242 24.6309L7.18765 23.6542L13.3734 5.68935ZM14.6293 14.5127L15.838 20.217L11.28 33.4543L8.44348 32.4776L14.6293 14.5127ZM16.2102 19.7591L14.9542 14.2078L16.2098 10.5611L17.4658 16.1125L16.2102 19.7591Z" fill="url(#paint1_linear)"/>
</g>
</g>
<defs>
<filter id="filter0_d" x="0.76886" y="0.0127258" width="26" height="26" filterUnits="userSpaceOnUse" color-interpolation-filters="sRGB">
<feFlood flood-opacity="0" result="BackgroundImageFix"/>
<feColorMatrix in="SourceAlpha" type="matrix" values="0 0 0 0 0 0 0 0 0 0 0 0 0 0 0 0 0 0 127 0"/>
<feOffset/>
<feGaussianBlur stdDeviation="1"/>
<feColorMatrix type="matrix" values="0 0 0 0 0 0 0 0 0 0 0 0 0 0 0 0 0 0 0.25 0"/>
<feBlend mode="normal" in2="BackgroundImageFix" result="effect1_dropShadow"/>
<feBlend mode="normal" in="SourceGraphic" in2="effect1_dropShadow" result="shape"/>
</filter>
<radialGradient id="paint0_radial" cx="0" cy="0" r="1" gradientUnits="userSpaceOnUse" gradientTransform="translate(13.7689 13.0127) rotate(90) scale(11)">
<stop stop-color="#48E5BB"/>
<stop offset="1" stop-color="#6CB4CF"/>
</radialGradient>
<linearGradient id="paint1_linear" x1="16.21" y1="10.5611" x2="16.21" y2="19.7591" gradientUnits="userSpaceOnUse">
<stop stop-color="#48E5BB"/>
<stop offset="1" stop-color="#6CB4CF"/>
</linearGradient>
</defs>
</svg>
