<svg width="509" height="509" viewBox="0 0 509 509" fill="none" xmlns="http://www.w3.org/2000/svg">
<path d="M258.893 260.695C258.893 260.695 213.41 393.467 433.984 434.405L258.893 260.695Z" fill="url(#paint0_linear)"/>
<path d="M258.893 260.695C257.208 266.273 256.228 272.044 255.654 277.834C255.063 283.628 255.012 289.468 255.355 295.273C255.471 296.723 255.483 298.181 255.683 299.623L256.193 303.956C256.344 305.403 256.672 306.824 256.903 308.259C257.178 309.686 257.355 311.134 257.738 312.538C258.433 315.361 259.03 318.21 259.973 320.964L261.276 325.124L262.845 329.191C263.806 331.938 265.113 334.538 266.335 337.175L267.258 339.149C267.589 339.795 267.96 340.421 268.309 341.058L270.434 344.863C273.376 349.872 276.669 354.676 280.306 359.209L281.637 360.935C282.076 361.514 282.594 362.028 283.068 362.578L285.976 365.825C286.962 366.891 287.877 368.026 288.922 369.036L292.058 372.064L295.194 375.092C295.703 375.611 296.26 376.078 296.822 376.54L298.493 377.94L301.835 380.74L303.506 382.14L304.344 382.836L305.226 383.477L312.278 388.608C312.871 389.028 313.441 389.481 314.053 389.873L315.896 391.038L319.582 393.368C324.414 396.615 329.627 399.22 334.7 402.059C335.958 402.79 337.286 403.387 338.599 404.012L342.54 405.882L346.481 407.752C347.797 408.37 349.095 409.027 350.456 409.546L358.533 412.846L362.571 414.496C363.916 415.05 365.309 415.477 366.676 415.973L374.914 418.853L379.036 420.284L383.22 421.525L391.588 424.006L395.772 425.247L400.008 426.3L408.479 428.404C411.306 429.09 414.113 429.862 416.976 430.393L434.073 433.932L433.647 434.745L346.213 347.778L302.505 304.285L258.893 260.695ZM258.893 260.695L302.827 303.96L346.665 347.322L434.322 434.065L435.469 435.2L433.897 434.878L416.76 431.367C413.893 430.828 411.081 430.047 408.249 429.352L399.765 427.222L395.523 426.156L391.332 424.902L382.951 422.394L378.761 421.14L374.632 419.695L366.38 416.786C365.011 416.285 363.615 415.853 362.268 415.294L358.222 413.629L350.13 410.298C348.767 409.775 347.466 409.112 346.147 408.489L342.198 406.603L338.249 404.717C336.934 404.086 335.604 403.485 334.343 402.748C329.258 399.886 324.036 397.26 319.193 393.988L315.499 391.64L313.652 390.466C313.039 390.071 312.467 389.614 311.873 389.192L304.806 384.023L303.923 383.377L303.083 382.676L301.408 381.266L298.059 378.446L296.385 377.036C295.823 376.571 295.265 376.101 294.754 375.578L291.612 372.528L288.47 369.478C287.424 368.461 286.507 367.318 285.519 366.245L282.606 362.976C282.131 362.423 281.612 361.905 281.173 361.322L279.84 359.584C276.198 355.02 272.901 350.185 269.958 345.144L267.832 341.315C267.483 340.674 267.112 340.045 266.781 339.395L265.859 337.409C264.639 334.757 263.333 332.141 262.374 329.379L260.819 325.286L259.541 321.098C258.616 318.326 258.037 315.461 257.36 312.623C256.987 311.211 256.819 309.757 256.554 308.323C256.333 306.882 256.016 305.454 255.874 304.002L255.394 299.653C255.204 298.206 255.202 296.743 255.097 295.29C254.796 289.469 254.891 283.62 255.525 277.823C256.143 272.028 257.167 266.261 258.893 260.695Z" fill="url(#paint1_linear)"/>
<path d="M260.275 259.313C260.275 259.313 393.047 213.83 433.985 434.404L260.275 259.313Z" fill="url(#paint2_linear)"/>
<path d="M260.275 259.313C265.841 257.587 271.609 256.563 277.401 255.945C283.197 255.31 289.047 255.216 294.868 255.517C296.322 255.622 297.785 255.624 299.231 255.814L303.58 256.293C305.032 256.434 306.46 256.752 307.901 256.973C309.335 257.238 310.789 257.406 312.201 257.779C315.039 258.455 317.904 259.034 320.676 259.96L324.864 261.238L328.957 262.793C331.719 263.752 334.335 265.058 336.987 266.278L338.973 267.2C339.623 267.531 340.253 267.902 340.893 268.251L344.722 270.377C349.762 273.32 354.597 276.617 359.162 280.259L360.9 281.592C361.483 282.031 362 282.55 362.554 283.025L365.823 285.938C366.897 286.926 368.039 287.843 369.056 288.889L372.106 292.031L375.156 295.173C375.679 295.683 376.149 296.241 376.614 296.804L378.024 298.478L380.844 301.827L382.254 303.502L382.955 304.342L383.601 305.225L388.77 312.292C389.193 312.886 389.649 313.458 390.044 314.071L391.218 315.918L393.566 319.612C396.837 324.455 399.464 329.677 402.326 334.762C403.063 336.023 403.665 337.353 404.295 338.668L406.181 342.617L408.067 346.566C408.69 347.885 409.353 349.186 409.876 350.549L413.207 358.641L414.872 362.687C415.431 364.034 415.862 365.43 416.364 366.799L419.273 375.051L420.718 379.18L421.972 383.37L424.48 391.751L425.734 395.942L426.8 400.184L428.93 408.668C429.625 411.5 430.406 414.312 430.945 417.179L434.456 434.316L434.778 435.888L433.643 434.741L346.9 347.084L303.538 303.246L260.275 259.313ZM260.275 259.313L303.865 302.924L347.358 346.632L434.325 434.066L433.512 434.492L429.973 417.395C429.443 414.532 428.67 411.725 427.984 408.897L425.88 400.426L424.827 396.19L423.586 392.006L421.105 383.638L419.864 379.454L418.433 375.332L415.553 367.094C415.056 365.727 414.63 364.334 414.076 362.989L412.426 358.951L409.126 350.874C408.608 349.513 407.95 348.215 407.332 346.899L405.462 342.958L403.592 339.017C402.967 337.704 402.37 336.376 401.639 335.118C398.8 330.045 396.195 324.831 392.948 320L390.618 316.314L389.453 314.471C389.061 313.859 388.608 313.289 388.188 312.696L383.057 305.644L382.416 304.762L381.72 303.924L380.32 302.253L377.52 298.911L376.12 297.24C375.658 296.679 375.191 296.122 374.672 295.612L371.644 292.476L368.616 289.34C367.606 288.296 366.471 287.381 365.405 286.394L362.158 283.486C361.608 283.012 361.095 282.493 360.515 282.055L358.789 280.724C354.255 277.087 349.452 273.794 344.443 270.852L340.638 268.727C340.001 268.378 339.375 268.007 338.729 267.676L336.755 266.753C334.119 265.532 331.518 264.225 328.771 263.263L324.704 261.694L320.544 260.391C317.79 259.448 314.941 258.852 312.118 258.156C310.713 257.773 309.266 257.596 307.839 257.321C306.404 257.09 304.983 256.763 303.536 256.611L299.203 256.101C297.761 255.901 296.303 255.889 294.853 255.773C289.048 255.43 283.207 255.481 277.414 256.072C271.624 256.648 265.853 257.628 260.275 259.313Z" fill="url(#paint3_linear)"/>
<path d="M247.822 249.624C247.822 249.624 115.05 295.107 74.1121 74.533L247.822 249.624Z" fill="url(#paint4_linear)"/>
<path d="M247.822 249.624C242.256 251.35 236.488 252.374 230.696 252.992C224.9 253.627 219.05 253.721 213.229 253.42C211.775 253.315 210.312 253.313 208.866 253.123L204.517 252.643C203.065 252.502 201.637 252.184 200.196 251.963C198.762 251.698 197.308 251.53 195.896 251.157C193.058 250.481 190.193 249.902 187.421 248.976L183.233 247.698L179.14 246.143C176.378 245.184 173.762 243.878 171.11 242.658L169.124 241.736C168.474 241.405 167.844 241.034 167.204 240.685L163.375 238.559C158.335 235.616 153.499 232.319 148.935 228.677L147.197 227.344C146.614 226.905 146.097 226.386 145.543 225.911L142.274 222.998C141.2 222.01 140.058 221.093 139.041 220.047L135.991 216.905L132.941 213.763C132.418 213.253 131.948 212.695 131.483 212.132L130.073 210.458L127.253 207.109L125.843 205.434L125.142 204.594L124.496 203.711L119.327 196.644C118.904 196.05 118.448 195.478 118.053 194.865L116.879 193.018L114.531 189.324C111.26 184.481 108.633 179.259 105.771 174.174C105.034 172.913 104.432 171.583 103.802 170.268L101.916 166.319L100.03 162.37C99.4071 161.051 98.7441 159.75 98.2211 158.387L94.8901 150.295L93.2251 146.249C92.6661 144.902 92.2351 143.506 91.7331 142.137L88.8241 133.885L87.3791 129.756L86.1251 125.566L83.6171 117.185L82.3631 112.994L81.2971 108.752L79.1671 100.268C78.4721 97.436 77.6911 94.624 77.1521 91.757L73.6411 74.62L73.3191 73.048L74.4541 74.195L161.197 161.852L204.559 205.69L247.822 249.624ZM247.822 249.624L204.232 206.013L160.739 162.305L73.7721 74.871L74.5851 74.445L78.1241 91.542C78.6541 94.405 79.4271 97.212 80.1131 100.04L82.2171 108.511L83.2701 112.747L84.5111 116.931L86.9921 125.299L88.2321 129.483L89.6631 133.605L92.5431 141.843C93.0401 143.21 93.4661 144.603 94.0201 145.948L95.6701 149.986L98.9701 158.063C99.4881 159.424 100.146 160.722 100.764 162.038L102.634 165.979L104.504 169.92C105.129 171.233 105.726 172.561 106.457 173.819C109.296 178.892 111.901 184.106 115.148 188.937L117.478 192.623L118.643 194.466C119.035 195.078 119.488 195.648 119.908 196.241L125.039 203.293L125.68 204.175L126.376 205.013L127.776 206.684L130.576 210.026L131.976 211.697C132.438 212.258 132.905 212.815 133.424 213.325L136.452 216.461L139.48 219.597C140.49 220.642 141.625 221.556 142.691 222.543L145.938 225.451C146.488 225.925 147.001 226.444 147.581 226.882L149.307 228.213C153.841 231.85 158.644 235.143 163.653 238.085L167.458 240.21C168.095 240.559 168.721 240.93 169.367 241.261L171.341 242.184C173.977 243.405 176.578 244.712 179.325 245.674L183.392 247.243L187.552 248.546C190.306 249.489 193.155 250.085 195.978 250.781C197.383 251.164 198.83 251.341 200.257 251.616C201.692 251.847 203.113 252.174 204.56 252.326L208.893 252.836C210.335 253.036 211.793 253.048 213.243 253.164C219.048 253.507 224.889 253.456 230.682 252.865C236.473 252.289 242.244 251.309 247.822 249.624Z" fill="url(#paint5_linear)"/>
<path d="M249.204 248.242C249.204 248.242 294.687 115.47 74.113 74.532L249.204 248.242Z" fill="url(#paint6_linear)"/>
<path d="M249.204 248.242C250.889 242.664 251.869 236.893 252.443 231.103C253.034 225.309 253.085 219.469 252.742 213.664C252.626 212.214 252.614 210.756 252.414 209.314L251.904 204.981C251.753 203.534 251.425 202.113 251.194 200.678C250.919 199.251 250.742 197.803 250.359 196.399C249.664 193.576 249.067 190.727 248.124 187.973L246.821 183.813L245.252 179.746C244.291 176.999 242.984 174.399 241.762 171.762L240.839 169.788C240.508 169.142 240.137 168.516 239.788 167.879L237.663 164.074C234.721 159.065 231.428 154.261 227.791 149.728L226.46 148.002C226.021 147.423 225.503 146.909 225.029 146.359L222.121 143.112C221.135 142.046 220.22 140.911 219.175 139.901L216.039 136.873L212.903 133.845C212.394 133.326 211.837 132.859 211.275 132.397L209.604 130.997L206.262 128.197L204.591 126.797L203.753 126.101L202.871 125.46L195.819 120.329C195.226 119.909 194.656 119.456 194.044 119.064L192.201 117.899L188.515 115.569C183.683 112.322 178.47 109.717 173.397 106.878C172.139 106.147 170.811 105.55 169.498 104.925L165.557 103.055L161.616 101.185C160.3 100.567 159.002 99.91 157.641 99.391L149.564 96.091L145.526 94.441C144.181 93.887 142.788 93.46 141.421 92.964L133.183 90.084L129.061 88.653L124.877 87.412L116.509 84.931L112.325 83.69L108.09 82.637L99.6189 80.533C96.7919 79.847 93.9849 79.075 91.1209 78.544L74.0239 75.005L74.4499 74.192L161.884 161.159L205.592 204.652L249.204 248.242ZM249.204 248.242L205.27 204.977L161.432 161.615L73.7749 74.873L72.6279 73.738L74.1999 74.06L91.3369 77.571C94.2039 78.11 97.0159 78.891 99.8479 79.586L108.332 81.716L112.574 82.782L116.765 84.036L125.146 86.544L129.336 87.798L133.465 89.243L141.717 92.152C143.086 92.653 144.481 93.085 145.829 93.644L149.875 95.309L157.967 98.64C159.33 99.163 160.631 99.826 161.95 100.449L165.899 102.335L169.848 104.221C171.163 104.852 172.493 105.453 173.754 106.19C178.839 109.052 184.061 111.678 188.904 114.95L192.598 117.298L194.445 118.472C195.058 118.867 195.63 119.324 196.224 119.746L203.291 124.915L204.174 125.561L205.014 126.262L206.689 127.672L210.038 130.492L211.712 131.902C212.274 132.367 212.832 132.837 213.343 133.36L216.485 136.41L219.627 139.46C220.673 140.477 221.59 141.62 222.578 142.693L225.491 145.962C225.966 146.515 226.485 147.033 226.924 147.616L228.257 149.354C231.899 153.918 235.196 158.753 238.139 163.794L240.265 167.623C240.614 168.264 240.985 168.893 241.316 169.543L242.238 171.529C243.458 174.181 244.764 176.797 245.723 179.559L247.278 183.652L248.556 187.84C249.481 190.612 250.06 193.477 250.737 196.315C251.11 197.727 251.278 199.181 251.543 200.615C251.764 202.056 252.081 203.484 252.223 204.936L252.703 209.285C252.893 210.732 252.895 212.195 253 213.648C253.301 219.469 253.206 225.318 252.572 231.115C251.954 236.909 250.93 242.676 249.204 248.242Z" fill="url(#paint7_linear)"/>
<path d="M258.893 248.242C258.893 248.242 213.41 115.47 433.984 74.532L258.893 248.242Z" fill="url(#paint8_linear)"/>
<path d="M258.893 248.242C257.167 242.676 256.143 236.908 255.525 231.116C254.89 225.32 254.796 219.47 255.097 213.649C255.202 212.195 255.204 210.732 255.394 209.286L255.874 204.937C256.015 203.485 256.333 202.057 256.554 200.616C256.819 199.182 256.987 197.728 257.36 196.316C258.036 193.478 258.615 190.613 259.541 187.841L260.819 183.653L262.374 179.56C263.333 176.798 264.639 174.182 265.859 171.53L266.781 169.544C267.112 168.894 267.483 168.264 267.832 167.624L269.958 163.795C272.901 158.755 276.198 153.919 279.84 149.355L281.173 147.617C281.612 147.034 282.131 146.517 282.606 145.963L285.519 142.694C286.507 141.62 287.424 140.478 288.47 139.461L291.612 136.411L294.754 133.361C295.264 132.838 295.822 132.368 296.385 131.903L298.059 130.493L301.408 127.673L303.083 126.263L303.923 125.562L304.806 124.916L311.873 119.747C312.467 119.324 313.039 118.868 313.652 118.473L315.499 117.299L319.193 114.951C324.036 111.68 329.258 109.053 334.343 106.191C335.604 105.454 336.934 104.852 338.249 104.222L342.198 102.336L346.147 100.45C347.466 99.827 348.767 99.164 350.13 98.641L358.222 95.31L362.268 93.645C363.615 93.086 365.011 92.655 366.38 92.153L374.632 89.244L378.761 87.799L382.951 86.545L391.332 84.037L395.523 82.783L399.765 81.717L408.249 79.587C411.081 78.892 413.893 78.111 416.76 77.572L433.897 74.061L435.469 73.739L434.322 74.874L346.665 161.617L302.827 204.979L258.893 248.242ZM258.893 248.242L302.504 204.652L346.212 161.159L433.646 74.192L434.072 75.005L416.975 78.544C414.112 79.074 411.305 79.847 408.478 80.533L400.007 82.637L395.771 83.69L391.587 84.931L383.219 87.412L379.035 88.653L374.913 90.084L366.675 92.964C365.308 93.461 363.915 93.887 362.57 94.441L358.532 96.091L350.455 99.391C349.094 99.909 347.796 100.567 346.48 101.185L342.539 103.055L338.598 104.925C337.285 105.55 335.957 106.147 334.699 106.878C329.626 109.717 324.412 112.322 319.581 115.569L315.895 117.899L314.052 119.064C313.44 119.456 312.87 119.909 312.277 120.329L305.225 125.46L304.343 126.101L303.505 126.797L301.834 128.197L298.492 130.997L296.821 132.397C296.26 132.859 295.703 133.326 295.193 133.845L292.057 136.873L288.921 139.901C287.876 140.911 286.962 142.046 285.975 143.112L283.067 146.359C282.593 146.909 282.074 147.422 281.636 148.002L280.305 149.728C276.668 154.262 273.375 159.065 270.433 164.074L268.308 167.879C267.959 168.516 267.588 169.142 267.257 169.788L266.334 171.762C265.113 174.398 263.806 176.999 262.844 179.746L261.275 183.813L259.972 187.973C259.029 190.727 258.433 193.576 257.737 196.399C257.354 197.804 257.177 199.251 256.902 200.678C256.671 202.113 256.344 203.534 256.192 204.981L255.682 209.314C255.482 210.756 255.47 212.214 255.354 213.664C255.011 219.469 255.062 225.31 255.653 231.103C256.228 236.893 257.208 242.664 258.893 248.242Z" fill="url(#paint9_linear)"/>
<path d="M260.275 249.624C260.275 249.624 393.047 295.107 433.985 74.533L260.275 249.624Z" fill="url(#paint10_linear)"/>
<path d="M260.275 249.624C265.853 251.309 271.624 252.289 277.414 252.863C283.207 253.454 289.048 253.505 294.853 253.162C296.303 253.046 297.761 253.034 299.203 252.834L303.536 252.324C304.983 252.173 306.404 251.845 307.839 251.614C309.266 251.339 310.714 251.162 312.118 250.779C314.941 250.084 317.79 249.487 320.544 248.544L324.704 247.241L328.771 245.672C331.518 244.711 334.118 243.404 336.755 242.182L338.729 241.259C339.375 240.928 340.001 240.557 340.638 240.208L344.443 238.083C349.452 235.141 354.256 231.848 358.789 228.211L360.515 226.88C361.094 226.441 361.608 225.923 362.158 225.449L365.405 222.541C366.471 221.555 367.606 220.64 368.616 219.595L371.644 216.459L374.672 213.323C375.191 212.814 375.658 212.257 376.12 211.695L377.52 210.024L380.32 206.682L381.72 205.011L382.416 204.173L383.057 203.291L388.188 196.239C388.608 195.646 389.061 195.076 389.453 194.464L390.618 192.621L392.948 188.935C396.195 184.103 398.8 178.89 401.639 173.817C402.37 172.559 402.967 171.231 403.592 169.918L405.462 165.977L407.332 162.036C407.95 160.72 408.607 159.422 409.126 158.061L412.426 149.984L414.076 145.946C414.63 144.601 415.057 143.208 415.553 141.841L418.433 133.603L419.864 129.481L421.105 125.297L423.586 116.929L424.827 112.745L425.88 108.509L427.984 100.038C428.67 97.211 429.442 94.404 429.973 91.54L433.512 74.443L434.325 74.869L347.358 162.303L303.865 206.011L260.275 249.624ZM260.275 249.624L303.54 205.69L346.902 161.852L433.645 74.195L434.78 73.048L434.458 74.62L430.947 91.757C430.408 94.624 429.627 97.436 428.932 100.268L426.802 108.752L425.736 112.994L424.482 117.185L421.974 125.566L420.72 129.756L419.275 133.885L416.366 142.137C415.865 143.506 415.434 144.901 414.874 146.249L413.209 150.295L409.878 158.387C409.355 159.75 408.692 161.051 408.069 162.37L406.183 166.319L404.297 170.268C403.666 171.583 403.065 172.913 402.328 174.174C399.466 179.259 396.84 184.481 393.568 189.324L391.22 193.018L390.046 194.865C389.651 195.478 389.194 196.05 388.772 196.644L383.603 203.711L382.957 204.594L382.256 205.434L380.846 207.109L378.026 210.458L376.616 212.132C376.151 212.694 375.681 213.252 375.158 213.763L372.108 216.905L369.058 220.047C368.04 221.093 366.898 222.01 365.825 222.998L362.556 225.911C362.002 226.386 361.485 226.905 360.902 227.344L359.164 228.677C354.6 232.319 349.765 235.616 344.724 238.559L340.895 240.685C340.254 241.034 339.625 241.405 338.975 241.736L336.989 242.658C334.337 243.878 331.721 245.184 328.959 246.143L324.866 247.698L320.678 248.976C317.906 249.901 315.041 250.48 312.203 251.157C310.791 251.53 309.337 251.698 307.903 251.963C306.462 252.184 305.034 252.501 303.582 252.643L299.233 253.123C297.786 253.313 296.323 253.315 294.87 253.42C289.049 253.721 283.2 253.626 277.403 252.992C271.608 252.374 265.841 251.35 260.275 249.624Z" fill="url(#paint11_linear)"/>
<path d="M247.822 259.313C247.822 259.313 115.05 213.83 74.1121 434.404L247.822 259.313Z" fill="url(#paint12_linear)" stroke="url(#paint13_linear)" stroke-miterlimit="10"/>
<path d="M249.204 260.695C249.204 260.695 294.687 393.467 74.113 434.405L249.204 260.695Z" fill="url(#paint14_linear)"/>
<path d="M249.204 260.695C250.93 266.261 251.954 272.029 252.572 277.821C253.207 283.617 253.301 289.467 253 295.288C252.895 296.742 252.893 298.205 252.703 299.651L252.223 304C252.082 305.452 251.764 306.88 251.543 308.321C251.278 309.755 251.11 311.209 250.737 312.621C250.061 315.459 249.482 318.324 248.556 321.096L247.278 325.284L245.723 329.377C244.764 332.139 243.458 334.755 242.238 337.407L241.316 339.393C240.985 340.043 240.614 340.673 240.265 341.313L238.139 345.142C235.196 350.182 231.899 355.018 228.257 359.582L226.924 361.32C226.485 361.903 225.966 362.42 225.491 362.974L222.578 366.243C221.59 367.317 220.673 368.459 219.627 369.476L216.485 372.526L213.343 375.576C212.833 376.099 212.275 376.569 211.712 377.034L210.038 378.444L206.689 381.264L205.014 382.674L204.174 383.375L203.291 384.021L196.224 389.19C195.63 389.613 195.058 390.069 194.445 390.464L192.598 391.638L188.904 393.986C184.061 397.257 178.839 399.884 173.754 402.746C172.493 403.483 171.163 404.085 169.848 404.715L165.899 406.601L161.95 408.487C160.631 409.11 159.33 409.773 157.967 410.296L149.875 413.627L145.829 415.292C144.482 415.851 143.086 416.282 141.717 416.784L133.465 419.693L129.336 421.138L125.146 422.392L116.765 424.9L112.574 426.154L108.332 427.22L99.8479 429.35C97.0159 430.045 94.2039 430.826 91.3369 431.365L74.1999 434.876L72.6279 435.198L73.7749 434.063L161.432 347.32L205.27 303.958L249.204 260.695ZM249.204 260.695L205.593 304.285L161.885 347.778L74.4509 434.745L74.0249 433.932L91.1219 430.393C93.9849 429.863 96.7919 429.09 99.6199 428.404L108.091 426.3L112.326 425.247L116.51 424.006L124.878 421.525L129.062 420.284L133.184 418.853L141.422 415.973C142.789 415.476 144.182 415.05 145.527 414.496L149.565 412.846L157.642 409.546C159.003 409.028 160.301 408.37 161.617 407.752L165.558 405.882L169.499 404.012C170.812 403.387 172.14 402.79 173.398 402.059C178.471 399.22 183.685 396.615 188.516 393.368L192.202 391.038L194.045 389.873C194.657 389.481 195.227 389.028 195.82 388.608L202.872 383.477L203.754 382.836L204.592 382.14L206.263 380.74L209.605 377.94L211.276 376.54C211.837 376.078 212.394 375.611 212.904 375.092L216.04 372.064L219.176 369.036C220.22 368.026 221.135 366.891 222.122 365.825L225.03 362.578C225.504 362.028 226.023 361.515 226.461 360.935L227.792 359.209C231.429 354.675 234.722 349.872 237.664 344.863L239.789 341.058C240.138 340.421 240.509 339.795 240.84 339.149L241.763 337.175C242.984 334.539 244.291 331.938 245.253 329.191L246.822 325.124L248.125 320.964C249.068 318.21 249.664 315.361 250.36 312.538C250.743 311.133 250.92 309.686 251.195 308.259C251.426 306.824 251.753 305.403 251.905 303.956L252.415 299.623C252.615 298.181 252.627 296.723 252.743 295.273C253.086 289.468 253.035 283.627 252.444 277.834C251.869 272.044 250.889 266.273 249.204 260.695Z" fill="url(#paint15_linear)"/>
<path d="M254.072 262.297C254.072 262.297 128.027 324.019 255.049 508.936L254.072 262.297Z" fill="url(#paint16_linear)"/>
<path d="M254.025 262.297C254.025 262.297 380.07 324.019 253.048 508.936L254.025 262.297Z" fill="url(#paint17_linear)"/>
<path d="M254.088 246.64C254.088 246.64 128.043 184.918 255.065 0L254.088 246.64Z" fill="url(#paint18_linear)"/>
<path d="M254.009 246.64C254.009 246.64 380.054 184.918 253.032 0L254.009 246.64Z" fill="url(#paint19_linear)"/>
<path d="M261.877 254.492C261.877 254.492 323.599 128.447 508.517 255.469L261.877 254.492Z" fill="url(#paint20_linear)"/>
<path d="M261.877 254.445C261.877 254.445 323.599 380.49 508.517 253.468L261.877 254.445Z" fill="url(#paint21_linear)"/>
<path d="M246.64 254.492C246.64 254.492 184.918 128.447 0 255.469L246.64 254.492Z" fill="url(#paint22_linear)"/>
<path d="M246.64 254.445C246.64 254.445 184.918 380.49 0 253.468L246.64 254.445Z" fill="url(#paint23_linear)"/>
<path d="M254.049 261.878C258.141 261.878 261.458 258.561 261.458 254.469C261.458 250.377 258.141 247.06 254.049 247.06C249.957 247.06 246.64 250.377 246.64 254.469C246.64 258.561 249.957 261.878 254.049 261.878Z" fill="#3A7DB3" stroke="#3A7DB3" stroke-width="16" stroke-miterlimit="10"/>
<defs>
<linearGradient id="paint0_linear" x1="414.898" y1="454.506" x2="239.898" y2="281.506" gradientUnits="userSpaceOnUse">
<stop stop-color="#74C7CE"/>
<stop offset="1" stop-color="#80A7CE"/>
</linearGradient>
<linearGradient id="paint1_linear" x1="254.515" y1="347.947" x2="435.488" y2="347.947" gradientUnits="userSpaceOnUse">
<stop stop-color="#80A7CE"/>
<stop offset="1" stop-color="#74C7CE"/>
</linearGradient>
<linearGradient id="paint2_linear" x1="454.612" y1="414.332" x2="279.612" y2="241.332" gradientUnits="userSpaceOnUse">
<stop stop-color="#74C7CE"/>
<stop offset="1" stop-color="#80A7CE"/>
</linearGradient>
<linearGradient id="paint3_linear" x1="259.358" y1="345.621" x2="434.772" y2="345.621" gradientUnits="userSpaceOnUse">
<stop stop-color="#80A7CE"/>
<stop offset="1" stop-color="#74C7CE"/>
</linearGradient>
<linearGradient id="paint4_linear" x1="74.1128" y1="164.017" x2="247.822" y2="164.017" gradientUnits="userSpaceOnUse">
<stop stop-color="#74C7CE"/>
<stop offset="1" stop-color="#80A7CE"/>
</linearGradient>
<linearGradient id="paint5_linear" x1="73.3187" y1="163.316" x2="248.733" y2="163.316" gradientUnits="userSpaceOnUse">
<stop stop-color="#74C7CE"/>
<stop offset="1" stop-color="#80A7CE"/>
</linearGradient>
<linearGradient id="paint6_linear" x1="74.1127" y1="161.388" x2="253.082" y2="161.388" gradientUnits="userSpaceOnUse">
<stop stop-color="#74C7CE"/>
<stop offset="1" stop-color="#80A7CE"/>
</linearGradient>
<linearGradient id="paint7_linear" x1="72.6278" y1="160.99" x2="253.601" y2="160.99" gradientUnits="userSpaceOnUse">
<stop stop-color="#74C7CE"/>
<stop offset="1" stop-color="#80A7CE"/>
</linearGradient>
<linearGradient id="paint8_linear" x1="409.997" y1="57.8525" x2="240.997" y2="228.852" gradientUnits="userSpaceOnUse">
<stop stop-color="#74C7CE"/>
<stop offset="1" stop-color="#80A7CE"/>
</linearGradient>
<linearGradient id="paint9_linear" x1="254.515" y1="160.991" x2="435.488" y2="160.991" gradientUnits="userSpaceOnUse">
<stop stop-color="#80A7CE"/>
<stop offset="1" stop-color="#74C7CE"/>
</linearGradient>
<linearGradient id="paint10_linear" x1="450.163" y1="97.5494" x2="281.163" y2="268.549" gradientUnits="userSpaceOnUse">
<stop stop-color="#74C7CE"/>
<stop offset="1" stop-color="#80A7CE"/>
</linearGradient>
<linearGradient id="paint11_linear" x1="259.358" y1="163.316" x2="434.772" y2="163.316" gradientUnits="userSpaceOnUse">
<stop stop-color="#80A7CE"/>
<stop offset="1" stop-color="#74C7CE"/>
</linearGradient>
<linearGradient id="paint12_linear" x1="57.975" y1="410.728" x2="225.975" y2="241.728" gradientUnits="userSpaceOnUse">
<stop stop-color="#74C7CE"/>
<stop offset="1" stop-color="#80A7CE"/>
</linearGradient>
<linearGradient id="paint13_linear" x1="73.3251" y1="345.422" x2="248.739" y2="345.422" gradientUnits="userSpaceOnUse">
<stop stop-color="#74C7CE"/>
<stop offset="1" stop-color="#80A7CE"/>
</linearGradient>
<linearGradient id="paint14_linear" x1="98.193" y1="450.708" x2="266.193" y2="281.708" gradientUnits="userSpaceOnUse">
<stop stop-color="#74C7CE"/>
<stop offset="1" stop-color="#80A7CE"/>
</linearGradient>
<linearGradient id="paint15_linear" x1="72.6278" y1="347.947" x2="253.601" y2="347.947" gradientUnits="userSpaceOnUse">
<stop stop-color="#74C7CE"/>
<stop offset="1" stop-color="#80A7CE"/>
</linearGradient>
<linearGradient id="paint16_linear" x1="226.383" y1="512.3" x2="227.383" y2="265.3" gradientUnits="userSpaceOnUse">
<stop stop-color="white"/>
<stop offset="0.2692" stop-color="#FCFCFD"/>
<stop offset="0.4949" stop-color="#F2F1F8"/>
<stop offset="0.7048" stop-color="#E2E0F0"/>
<stop offset="0.9041" stop-color="#CCC8E4"/>
<stop offset="1" stop-color="#BEB9DD"/>
</linearGradient>
<linearGradient id="paint17_linear" x1="281.081" y1="512.53" x2="282.081" y2="265.529" gradientUnits="userSpaceOnUse">
<stop stop-color="white"/>
<stop offset="0.2692" stop-color="#FCFCFD"/>
<stop offset="0.4949" stop-color="#F2F1F8"/>
<stop offset="0.7048" stop-color="#E2E0F0"/>
<stop offset="0.9041" stop-color="#CCC8E4"/>
<stop offset="1" stop-color="#BEB9DD"/>
</linearGradient>
<linearGradient id="paint18_linear" x1="226.251" y1="23.2652" x2="228.251" y2="242.265" gradientUnits="userSpaceOnUse">
<stop stop-color="white"/>
<stop offset="0.2692" stop-color="#FCFCFD"/>
<stop offset="0.4949" stop-color="#F2F1F8"/>
<stop offset="0.7048" stop-color="#E2E0F0"/>
<stop offset="0.9041" stop-color="#CCC8E4"/>
<stop offset="1" stop-color="#BEB9DD"/>
</linearGradient>
<linearGradient id="paint19_linear" x1="280.289" y1="22.7531" x2="282.289" y2="241.753" gradientUnits="userSpaceOnUse">
<stop stop-color="white"/>
<stop offset="0.2692" stop-color="#FCFCFD"/>
<stop offset="0.4949" stop-color="#F2F1F8"/>
<stop offset="0.7048" stop-color="#E2E0F0"/>
<stop offset="0.9041" stop-color="#CCC8E4"/>
<stop offset="1" stop-color="#BEB9DD"/>
</linearGradient>
<linearGradient id="paint20_linear" x1="520.377" y1="230.701" x2="265.377" y2="225.701" gradientUnits="userSpaceOnUse">
<stop stop-color="white"/>
<stop offset="0.2692" stop-color="#FCFCFD"/>
<stop offset="0.4949" stop-color="#F2F1F8"/>
<stop offset="0.7048" stop-color="#E2E0F0"/>
<stop offset="0.9041" stop-color="#CCC8E4"/>
<stop offset="1" stop-color="#BEB9DD"/>
</linearGradient>
<linearGradient id="paint21_linear" x1="519.303" y1="283.486" x2="264.303" y2="278.486" gradientUnits="userSpaceOnUse">
<stop stop-color="white"/>
<stop offset="0.2692" stop-color="#FCFCFD"/>
<stop offset="0.4949" stop-color="#F2F1F8"/>
<stop offset="0.7048" stop-color="#E2E0F0"/>
<stop offset="0.9041" stop-color="#CCC8E4"/>
<stop offset="1" stop-color="#BEB9DD"/>
</linearGradient>
<linearGradient id="paint22_linear" x1="-2.9269" y1="227.43" x2="245.073" y2="226.43" gradientUnits="userSpaceOnUse">
<stop stop-color="white"/>
<stop offset="0.2692" stop-color="#FCFCFD"/>
<stop offset="0.4949" stop-color="#F2F1F8"/>
<stop offset="0.7048" stop-color="#E2E0F0"/>
<stop offset="0.9041" stop-color="#CCC8E4"/>
<stop offset="1" stop-color="#BEB9DD"/>
</linearGradient>
<linearGradient id="paint23_linear" x1="-2.6983" y1="282.13" x2="245.302" y2="281.13" gradientUnits="userSpaceOnUse">
<stop stop-color="white"/>
<stop offset="0.2692" stop-color="#FCFCFD"/>
<stop offset="0.4949" stop-color="#F2F1F8"/>
<stop offset="0.7048" stop-color="#E2E0F0"/>
<stop offset="0.9041" stop-color="#CCC8E4"/>
<stop offset="1" stop-color="#BEB9DD"/>
</linearGradient>
</defs>
</svg>
